<?xml version="1.0" encoding="UTF-8"?>
<!-- Generator: Adobe Illustrator 25.0.0, SVG Export Plug-In . SVG Version: 6.00 Build 0)  -->
<svg version="1.1" id="Layer_1" xmlns="http://www.w3.org/2000/svg" xmlns:xlink="http://www.w3.org/1999/xlink" x="0px" y="0px" viewBox="0 0 100 55.9" style="enable-background:new 0 0 100 55.9;" xml:space="preserve">
<style type="text/css">
	.st0{fill:#D82828;}
</style>
<g>
	<path class="st0" d="M77.8,8.6c-2.6,1.9-4.9,3.7-7.4,5.4c-0.4,0.3-1.3-0.1-1.9-0.4c-5.9-3.1-12.2-4.5-18.9-4.4   C31,9.3,14.6,22.2,10.3,40.3c-0.7,3-0.9,6-1.2,9.1c-0.2,1.9-0.6,2.3-2.4,2.4c-1.4,0-2.8,0-4.2,0c-1.9,0-2.5-0.6-2.4-2.5   c0.2-12.1,4.3-22.9,12.2-32c7.7-8.9,17.4-14.4,29-16.4C54-1.4,65.9,1,76.9,7.9C77.1,8,77.3,8.2,77.8,8.6z"/>
	<path class="st0" d="M39.6,45.5c0-5.5,4-9.9,9.4-10.4c0.7-0.1,1.5-0.3,2.1-0.7c6.9-5,13.7-10.1,20.5-15.1c2.8-2.1,5.7-4.1,8.6-6.1   c1-0.7,2.3-1.8,3.4-0.7c1.1,1.1-0.1,2.4-0.8,3.4c-7.2,9.4-14.4,18.8-21.6,28.3c-0.5,0.6-0.8,1.4-0.8,2.2c-0.5,5.6-5.2,9.8-10.8,9.6   C44.1,55.8,39.6,51.1,39.6,45.5z"/>
	<path class="st0" d="M95.4,51.8c-4.3,0.1-4.4,0.1-4.6-4.3c-0.4-7.7-2.9-14.7-7.4-20.9c-1-1.4-1.1-2.3,0.1-3.6   c1.2-1.3,2.3-2.8,3.3-4.2c0.8-1.1,1.3-1.1,2.2,0c3.9,5,7.1,10.4,8.7,16.6c1.1,4.3,1.7,8.7,2.2,13.1c0.4,3-0.2,3.4-3.3,3.4   C96.2,51.8,95.8,51.8,95.4,51.8z"/>
</g>
</svg>