<?xml version="1.0" encoding="UTF-8"?>
<!-- Generator: Adobe Illustrator 25.0.0, SVG Export Plug-In . SVG Version: 6.00 Build 0)  -->
<svg version="1.1" id="Layer_1" xmlns="http://www.w3.org/2000/svg" xmlns:xlink="http://www.w3.org/1999/xlink" x="0px" y="0px" viewBox="0 0 74.9 100" style="enable-background:new 0 0 74.9 100;" xml:space="preserve">
<style type="text/css">
	.st0{fill:#D82828;}
</style>
<g>
	<g id="file" transform="translate(-13296 3055)">
		<path id="path6" class="st0" d="M13355.9-2993.2v3.7c0,0.5-0.2,1-0.5,1.3c-0.4,0.4-0.8,0.5-1.3,0.5h-41.2c-0.5,0-1-0.2-1.3-0.5    c-0.4-0.4-0.5-0.8-0.5-1.3v-3.7c0-0.5,0.2-1,0.5-1.3c0.4-0.4,0.8-0.5,1.3-0.5h41.2c0.5,0,1,0.2,1.3,0.5    C13355.7-2994.2,13355.9-2993.8,13355.9-2993.2z M13355.9-3008.2v3.7c0,0.5-0.2,1-0.5,1.3c-0.4,0.4-0.8,0.5-1.3,0.5h-41.2    c-0.5,0-1-0.2-1.3-0.5c-0.4-0.4-0.5-0.8-0.5-1.3v-3.7c0-0.5,0.2-1,0.5-1.3c0.4-0.4,0.8-0.5,1.3-0.5h41.2c0.5,0,1,0.2,1.3,0.5    C13355.7-3009.2,13355.9-3008.7,13355.9-3008.2L13355.9-3008.2z M13303.5-2962.5h59.9v-55.1h-24.3c-1.6,0-2.9-0.5-4-1.6    c-1.1-1.1-1.6-2.4-1.6-4v-24.3h-30V-2962.5z M13340.9-3025h17.5l-17.5-17.5V-3025z M13370.9-3017.6v56.9c0,1.6-0.5,2.9-1.6,4    c-1.1,1.1-2.4,1.6-4,1.6h-63.7c-1.6,0-2.9-0.5-4-1.6c-1.1-1.1-1.6-2.4-1.6-4v-88.8c0-1.6,0.5-2.9,1.6-4c1.1-1.1,2.4-1.6,4-1.6    h31.8c1.6,0,3.3,0.4,5.1,1.2c1.9,0.8,3.4,1.7,4.4,2.8l23.9,23.9c1.1,1.1,2,2.6,2.8,4.4    C13370.5-3020.8,13370.9-3019.1,13370.9-3017.6z"/>
		<path id="path6-2" class="st0" d="M13355.9-2993.2v3.7c0,0.5-0.2,1-0.5,1.3c-0.4,0.4-0.8,0.5-1.3,0.5h-41.2c-0.5,0-1-0.2-1.3-0.5    c-0.4-0.4-0.5-0.8-0.5-1.3v-3.7c0-0.5,0.2-1,0.5-1.3c0.4-0.4,0.8-0.5,1.3-0.5h41.2c0.5,0,1,0.2,1.3,0.5    C13355.7-2994.2,13355.9-2993.8,13355.9-2993.2z M13355.9-3008.2v3.7c0,0.5-0.2,1-0.5,1.3c-0.4,0.4-0.8,0.5-1.3,0.5h-41.2    c-0.5,0-1-0.2-1.3-0.5c-0.4-0.4-0.5-0.8-0.5-1.3v-3.7c0-0.5,0.2-1,0.5-1.3c0.4-0.4,0.8-0.5,1.3-0.5h41.2c0.5,0,1,0.2,1.3,0.5    C13355.7-3009.2,13355.9-3008.7,13355.9-3008.2L13355.9-3008.2z M13303.5-2962.5h59.9v-55.1h-24.3c-1.6,0-2.9-0.5-4-1.6    c-1.1-1.1-1.6-2.4-1.6-4v-24.3h-30V-2962.5z M13340.9-3025h17.5l-17.5-17.5V-3025z M13370.9-3017.6v56.9c0,1.6-0.5,2.9-1.6,4    c-1.1,1.1-2.4,1.6-4,1.6h-63.7c-1.6,0-2.9-0.5-4-1.6c-1.1-1.1-1.6-2.4-1.6-4v-88.8c0-1.6,0.5-2.9,1.6-4c1.1-1.1,2.4-1.6,4-1.6    h31.8c1.6,0,3.3,0.4,5.1,1.2c1.9,0.8,3.4,1.7,4.4,2.8l23.9,23.9c1.1,1.1,2,2.6,2.8,4.4    C13370.5-3020.8,13370.9-3019.1,13370.9-3017.6z"/>
		<path id="Rectangle_190" class="st0" d="M13313.4-2980.4h40.1c1.4,0,2.5,1.1,2.5,2.5v2.6c0,1.4-1.1,2.5-2.5,2.5h-40.1    c-1.4,0-2.5-1.1-2.5-2.5v-2.6C13310.9-2979.3,13312-2980.4,13313.4-2980.4z"/>
	</g>
	<rect x="15" y="21.8" class="st0" width="10.1" height="9.2"/>
</g>
</svg>