<?xml version="1.0" encoding="UTF-8"?>
<!-- Generator: Adobe Illustrator 25.0.0, SVG Export Plug-In . SVG Version: 6.00 Build 0)  -->
<svg version="1.1" id="Layer_1" xmlns="http://www.w3.org/2000/svg" xmlns:xlink="http://www.w3.org/1999/xlink" x="0px" y="0px" viewBox="0 0 100 100" style="enable-background:new 0 0 100 100;" xml:space="preserve">
<style type="text/css">
	.st0{fill:#D82828;}
</style>
<path class="st0" d="M0,50C0.1,22.1,22.4,0,50.1,0c27.6,0,50,22.2,49.9,50c0,27.8-22.5,50-50.2,49.9C22.4,99.9,0.1,77.8,0,50z   M28.5,25.5c-0.3-0.1-0.5-0.1-0.7-0.2c-4.1-1.1-8.1-2.4-11.9-4.3c-0.5-0.2-0.8-0.2-1.1,0.2c-5,6.2-8.2,13.3-9.6,21.1  c-0.3,1.7-0.4,3.5-0.6,5.2c7,0,14,0,20.9,0C25.7,40.1,26.6,32.8,28.5,25.5z M95.4,47.7c0-0.2,0-0.2,0-0.3c-0.1-1.3-0.2-2.7-0.4-4  c-1.3-8.3-4.5-15.6-9.8-22.1c-0.3-0.4-0.5-0.5-0.9-0.2c-3.6,1.8-7.3,3.1-11.2,4.1c-0.5,0.1-1,0.3-1.6,0.4c2,7.3,2.8,14.7,3,22.2  C81.5,47.7,88.4,47.7,95.4,47.7z M25.5,52.3c-7,0-13.9,0-20.9,0c0.2,1.5,0.3,2.9,0.5,4.3c1.3,8.3,4.5,15.7,9.8,22.2  c0.3,0.3,0.5,0.4,0.9,0.2c3-1.5,6.2-2.7,9.4-3.6c1.1-0.3,2.2-0.6,3.3-0.9C26.6,67.2,25.7,59.8,25.5,52.3z M95.4,52.3  c-7,0-13.9,0-20.8,0c-0.2,7.5-1.1,14.9-3,22.1c0.2,0.1,0.4,0.1,0.5,0.2c4.2,1.1,8.3,2.5,12.3,4.4c0.4,0.2,0.5,0.1,0.8-0.2  c3.4-4.2,6.1-8.9,7.8-14C94.4,60.8,95.2,56.7,95.4,52.3z M47.7,47.7c0-6.6,0-13.2,0-19.5c-4.9-0.5-9.8-1-14.7-1.5  c-1.8,6.8-2.7,13.8-2.9,21C36,47.7,41.8,47.7,47.7,47.7z M52.3,47.6c5.9,0,11.7,0,17.6,0c-0.2-7.2-1-14.3-2.9-21  c-5,0.5-9.8,1-14.7,1.5C52.3,34.5,52.3,41.1,52.3,47.6z M47.7,52.3c-5.9,0-11.7,0-17.6,0c0.2,7.2,1,14.3,2.9,21  c5-0.5,9.8-1,14.7-1.5C47.7,65.4,47.7,58.9,47.7,52.3z M67.1,73.3c1.8-6.8,2.7-13.8,2.9-21c-5.9,0-11.8,0-17.6,0  c0,6.6,0,13.1,0,19.5C57.3,72.4,62.1,72.8,67.1,73.3z M47.7,4.9c-1.6,0.3-3.5,1.5-5.1,3c-2.7,2.6-4.6,5.7-6.2,9.1  c-0.7,1.6-1.4,3.2-2.1,4.9c4.5,0.8,8.9,1.2,13.4,1.3C47.7,17.2,47.7,11.1,47.7,4.9z M52.4,4.9c0,6.2,0,12.3,0,18.5  c4.5-0.1,8.9-0.5,13.4-1.4c-0.9-2.1-1.7-4.1-2.7-6.1c-1.7-3.4-3.7-6.4-6.7-8.8C55.2,6.1,53.9,5.3,52.4,4.9z M47.7,76.6  c-4.5,0.1-8.9,0.5-13.3,1.3c0,0.2,0,0.3,0.1,0.4c1.3,3.5,2.8,6.9,5,10c1.8,2.5,3.8,4.8,6.6,6.1c0.5,0.2,1,0.4,1.6,0.6  C47.7,88.9,47.7,82.8,47.7,76.6z M52.3,95.1c0.2,0,0.3,0,0.3-0.1c0.2-0.1,0.4-0.1,0.6-0.2c2.3-0.9,4.1-2.5,5.6-4.3  c2.5-2.9,4.3-6.2,5.7-9.8c0.4-0.9,0.7-1.8,1.1-2.8c-4.5-0.8-8.9-1.2-13.3-1.3C52.3,82.8,52.3,88.9,52.3,95.1z M38,6.2  c-7.5,2.1-13.9,5.8-19.4,11c1.9,1.2,9.6,3.7,11.3,3.8C31.7,15.7,34.1,10.6,38,6.2z M81.5,17.3C77.6,12.9,67.2,7,62.1,6.3  c3.8,4.4,6.2,9.5,8.1,14.8C74.1,20.1,77.8,18.9,81.5,17.3z M70.2,78.9c-1.9,5.4-4.3,10.5-8.1,14.9c7.5-2.1,13.9-5.8,19.5-11.1  C77.8,81,74.1,79.8,70.2,78.9z M18.6,82.7c3.2,3.9,15.1,10.7,19.3,10.9c-3.8-4.4-6.1-9.4-8-14.8C25.9,79.8,22.2,81,18.6,82.7z"/>
</svg>