<?xml version="1.0" encoding="UTF-8"?>
<!-- Generator: Adobe Illustrator 25.0.0, SVG Export Plug-In . SVG Version: 6.00 Build 0)  -->
<svg version="1.1" id="Layer_1" xmlns="http://www.w3.org/2000/svg" xmlns:xlink="http://www.w3.org/1999/xlink" x="0px" y="0px" viewBox="0 0 100 100" style="enable-background:new 0 0 100 100;" xml:space="preserve">
<style type="text/css">
	.st0{fill:#D82828;}
</style>
<path class="st0" d="M50,0C22.4,0,0,22.4,0,50s22.4,50,50,50c27.6,0,50-22.4,50-50S77.6,0,50,0z M83.8,21.9  c6.1,7.3,9.8,16.6,10.1,26.8c-11.7-2.3-22.7-2.3-33-0.1c-1.2-3-2.3-5.8-3.5-8.6c1.9-0.7,3.7-1.4,5.4-2.2  C71.9,33.8,78.9,28.5,83.8,21.9z M50,6c11.4,0,21.8,4.3,29.6,11.5c-5.8,8.2-15,13.6-24.6,17c-1.8-4-3.7-7.9-5.6-11.4  C45.2,15,41.8,10,39.7,7.2C43,6.4,46.5,6,50,6z M33.6,9.2c1.2,1.5,5.3,6.6,10.8,17.1c1.5,2.8,3.1,6.1,4.9,10  c-5.1,1.4-10.2,2.4-14.8,3.1c-9,1.3-17.3,1.5-22.7,1.5c-1.8,0-3.4,0-4.7-0.1C10.1,26.4,20.2,14.6,33.6,9.2z M17.3,79.4  C10.3,71.6,6,61.3,6,50c0-1.1,0-2.2,0.1-3.3c1.5,0.1,3.3,0.1,5.5,0.1c0.3,0,0.6,0,0.9,0c5.6,0,13.8-0.3,22.6-1.5  c5.9-0.8,11.5-2,16.6-3.5c1.1,2.6,2.2,5.3,3.4,8.3C47.8,52.5,41,56,34.8,60.6c-6.9,5.1-11.7,10.8-14.6,14.6  C19,76.8,18.1,78.3,17.3,79.4z M50,94c-10.8,0-20.6-3.9-28.2-10.3c1.9-3.2,7.2-11.2,16.7-18.3c5.8-4.4,12.1-7.6,18.9-9.6  c3.6,9.5,7.3,20.8,11.1,34.2C62.8,92.5,56.6,94,50,94z M73.8,87c-3.4-11.7-6.9-22.7-10.7-32.7c9.4-1.9,19.6-1.8,30.6,0.5  C92.3,68.3,84.7,80,73.8,87z"/>
</svg>